<svg xmlns="http://www.w3.org/2000/svg" viewBox="0 1 124 20" preserveAspectRatio="xMinYMid meet" class="css-1sam187 e1ia5yod0"><path fill-rule="evenodd" clip-rule="evenodd" d="M91.2399 18.8959L86.4659 12.103C86.4439 12.0727 86.4294 12.0376 86.4237 12.0007C86.418 11.9637 86.4211 11.9259 86.4329 11.8904C86.4446 11.8548 86.4647 11.8226 86.4914 11.7963C86.5181 11.77 86.5507 11.7503 86.5865 11.739C87.6536 11.388 88.5818 10.7099 89.2384 9.80166C89.8949 8.89345 90.2462 7.80168 90.242 6.68259C90.242 6.68259 90.5783 1.00002 83.7755 1.00002C81.7869 0.968234 79.8175 1.39038 78.0182 2.2341V2.52896C78.3238 2.63504 78.5899 2.83108 78.7811 3.09111C78.9724 3.35114 79.0798 3.6629 79.0892 3.9851V18.885C79.1088 19.1802 79.0456 19.475 78.9069 19.7366C78.7681 19.9982 78.5592 20.2163 78.3033 20.3666V20.7306H82.4266V20.3666C82.4266 20.3666 81.8089 20.0026 81.8089 18.9105V12.4416C81.8089 12.345 81.8474 12.2525 81.9159 12.1842C81.9845 12.1159 82.0775 12.0776 82.1744 12.0776H83.0152C83.1113 12.0778 83.2061 12.1011 83.2913 12.1454C83.3766 12.1898 83.4499 12.2539 83.505 12.3324L89.2952 20.5705C89.3289 20.6163 89.3729 20.6537 89.4236 20.6797C89.4744 20.7056 89.5306 20.7193 89.5876 20.7197H92.8483V20.3557C92.2069 20.0054 91.6601 19.5058 91.2545 18.8995L91.2399 18.8959ZM83.2308 10.5996H82.1671C82.0701 10.5996 81.9772 10.5612 81.9086 10.493C81.8401 10.4247 81.8015 10.3321 81.8015 10.2356V3.44269C81.8004 3.29811 81.8527 3.15817 81.9484 3.04945C82.0441 2.94073 82.1766 2.8708 82.3206 2.85295C82.7108 2.80011 83.1039 2.77214 83.4977 2.76923C85.8189 2.76923 87.2847 4.20352 87.2847 6.68623C87.2847 9.46016 85.6727 10.5996 83.2308 10.5996ZM39.8188 12.103L44.5964 18.8959V18.8995C45.0038 19.5056 45.5517 20.005 46.1939 20.3557V20.7197H42.9405C42.8828 20.7199 42.8259 20.7064 42.7745 20.6805C42.723 20.6545 42.6785 20.6168 42.6444 20.5705L36.8579 12.3324C36.8021 12.2536 36.7282 12.1893 36.6423 12.145C36.5565 12.1006 36.4611 12.0775 36.3644 12.0776H35.5273C35.4303 12.0776 35.3373 12.1159 35.2688 12.1842C35.2002 12.2525 35.1617 12.345 35.1617 12.4416V18.9105C35.1617 20.0026 35.7831 20.3666 35.7831 20.3666V20.7306H31.6598V20.3666C31.915 20.2158 32.1232 19.9975 32.2613 19.736C32.3994 19.4744 32.462 19.1798 32.4421 18.885V3.9851C32.4327 3.6629 32.3253 3.35114 32.134 3.09111C31.9427 2.83108 31.6767 2.63504 31.371 2.52896V2.2341C33.1706 1.39124 35.1399 0.969136 37.1284 1.00002C43.9348 1.00002 43.5985 6.68259 43.5985 6.68259C43.6022 7.80155 43.2507 8.89305 42.5942 9.80116C41.9377 10.7093 41.0098 11.3875 39.943 11.739C39.9069 11.7499 39.874 11.7692 39.8468 11.7954C39.8197 11.8215 39.7992 11.8537 39.7871 11.8893C39.7749 11.9248 39.7715 11.9628 39.777 12C39.7825 12.0371 39.7968 12.0725 39.8188 12.103ZM35.5236 10.5996H36.591C39.0328 10.5996 40.6412 9.46016 40.6412 6.68623C40.6412 4.20352 39.1754 2.76923 36.8579 2.76923C36.4629 2.77214 36.0685 2.8001 35.6771 2.85295C35.5334 2.87155 35.4014 2.9417 35.3058 3.05025C35.2103 3.15881 35.1577 3.29833 35.1581 3.44269V10.2356C35.1581 10.3321 35.1966 10.4247 35.2651 10.493C35.3337 10.5612 35.4267 10.5996 35.5236 10.5996ZM10.0907 10.213C10.1144 10.2433 10.1452 10.2673 10.1804 10.2829V10.3011C12.0483 11.1092 13.3387 12.8712 13.3387 15.2811C13.3387 18.7357 10.8201 20.7416 7.7203 20.7416H0.28878V20.3775C0.543689 20.2264 0.751671 20.0081 0.889727 19.7466C1.02778 19.4851 1.09054 19.1907 1.07105 18.8959V4.11615C1.06167 3.79396 0.954237 3.4822 0.762973 3.22216C0.571709 2.96213 0.305638 2.76609 0 2.66002V2.36515C1.25382 1.6116 3.2899 1.00002 5.70615 1.00002C11.9496 1.00002 11.6389 6.21662 11.6389 6.21662C11.6556 6.90244 11.5287 7.5842 11.2663 8.21847C11.0039 8.85275 10.6116 9.42564 10.1146 9.90064C10.0866 9.927 10.0656 9.95984 10.0534 9.99625C10.0412 10.0326 10.0382 10.0715 10.0448 10.1093C10.0513 10.1471 10.0671 10.1828 10.0907 10.213ZM3.96999 2.95305C3.87518 3.06152 3.82316 3.20059 3.8236 3.3444H3.81628V9.42012C3.81628 9.51667 3.8548 9.60926 3.92335 9.67753C3.9919 9.7458 4.08488 9.78415 4.18183 9.78415H5.48682C7.65816 9.78415 9.12033 8.60832 9.12033 6.30035C9.12033 3.99238 7.7532 2.66002 5.59283 2.66002C5.17328 2.66452 4.75446 2.69614 4.33901 2.75466C4.19593 2.77407 4.06479 2.84457 3.96999 2.95305ZM4.2988 19.2454H6.42262L6.42993 19.2381C8.78769 19.2381 10.3413 17.731 10.3413 15.2556C10.3413 12.7292 8.78769 11.273 6.42993 11.273H4.18914C4.09219 11.273 3.99921 11.3114 3.93066 11.3797C3.86211 11.4479 3.8236 11.5405 3.8236 11.6371V18.7685C3.82359 18.8943 3.87354 19.0151 3.96256 19.1044C4.05157 19.1938 4.17244 19.2444 4.2988 19.2454ZM57.9351 10.2829C57.8999 10.2673 57.8691 10.2433 57.8455 10.213C57.8218 10.1828 57.806 10.1471 57.7995 10.1093C57.793 10.0715 57.7959 10.0326 57.8081 9.99625C57.8203 9.95984 57.8413 9.927 57.8693 9.90064C58.3664 9.42564 58.7586 8.85275 59.021 8.21847C59.2835 7.5842 59.4104 6.90244 59.3937 6.21662C59.3937 6.21662 59.708 1.00002 53.4609 1.00002C51.0556 1.00002 49.0122 1.6116 47.7547 2.36515V2.66002C48.0608 2.76594 48.3273 2.96183 48.5192 3.22182C48.7111 3.48181 48.8193 3.79365 48.8294 4.11615V18.8959C48.8486 19.1911 48.7853 19.4857 48.6465 19.7472C48.5078 20.0087 48.2991 20.2269 48.0435 20.3775V20.7416H55.475C58.5785 20.7416 61.0935 18.7357 61.0935 15.2811C61.0935 12.8712 59.8067 11.1092 57.9351 10.3011V10.2829ZM51.5783 3.3444C51.578 3.20004 51.6305 3.06052 51.7261 2.95196C51.8216 2.84341 51.9537 2.77326 52.0974 2.75466C52.5189 2.69507 52.9438 2.66345 53.3695 2.66002C55.5299 2.66002 56.8933 3.99238 56.8933 6.30035C56.8933 8.60832 55.4312 9.78415 53.2598 9.78415H51.9548C51.8579 9.78415 51.7649 9.7458 51.6964 9.67753C51.6278 9.60926 51.5893 9.51667 51.5893 9.42012V3.3444H51.5783ZM54.1773 19.2454H52.0462C51.9833 19.2454 51.9211 19.233 51.863 19.2091C51.8049 19.1851 51.7521 19.15 51.7076 19.1057C51.6632 19.0614 51.6279 19.0089 51.6038 18.951C51.5797 18.8931 51.5674 18.8311 51.5674 18.7685V11.6371C51.5674 11.5405 51.6059 11.4479 51.6744 11.3797C51.743 11.3114 51.836 11.273 51.9329 11.273H54.1737C56.5351 11.273 58.0887 12.7292 58.0887 15.2556C58.0887 17.731 56.5351 19.2381 54.1737 19.2381L54.1773 19.2454ZM25.7599 1.65892V1.29489H29.0352V1.65892C28.7796 1.80864 28.5708 2.0261 28.432 2.28706C28.2933 2.54802 28.23 2.84223 28.2493 3.1369V15.3247C28.2493 18.9505 26.2497 21 22.4006 21C18.5514 21 16.1059 18.9651 16.1059 15.3247V3.14782C16.1252 2.85315 16.0619 2.55894 15.9231 2.29798C15.7844 2.03702 15.5755 1.81956 15.32 1.66984V1.30581H19.4433V1.66984C19.4433 1.66984 18.8255 2.03388 18.8255 3.12598V14.8588C18.8255 17.9458 19.9697 19.2599 22.5651 19.2599C25.1604 19.2599 26.3777 17.9895 26.3777 15.1973V3.11506C26.374 2.02296 25.7599 1.65892 25.7599 1.65892ZM102.93 12.103L107.704 18.8959V18.8995C108.11 19.5058 108.656 20.0054 109.298 20.3557V20.7197H106.052C105.994 20.7199 105.937 20.7064 105.886 20.6805C105.834 20.6545 105.79 20.6168 105.756 20.5705L99.9691 12.3324C99.914 12.2539 99.8407 12.1898 99.7554 12.1454C99.6702 12.1011 99.5755 12.0778 99.4793 12.0776H98.6385C98.5416 12.0776 98.4486 12.1159 98.38 12.1842C98.3115 12.2525 98.273 12.345 98.273 12.4416V18.9105C98.273 20.0026 98.8907 20.3666 98.8907 20.3666V20.7306H94.7674V20.3666C95.0233 20.2163 95.2322 19.9982 95.371 19.7366C95.5098 19.475 95.5729 19.1802 95.5533 18.885V3.9851C95.5432 3.6626 95.435 3.35075 95.2431 3.09077C95.0512 2.83078 94.7847 2.63488 94.4786 2.52896V2.2341C96.2794 1.39082 98.2499 0.968709 100.24 1.00002C107.042 1.00002 106.706 6.68259 106.706 6.68259C106.71 7.80168 106.359 8.89344 105.702 9.80166C105.046 10.7099 104.118 11.388 103.051 11.739C103.015 11.7503 102.982 11.77 102.956 11.7963C102.929 11.8226 102.909 11.8548 102.897 11.8904C102.885 11.9259 102.882 11.9637 102.888 12.0007C102.894 12.0376 102.908 12.0727 102.93 12.103ZM98.6312 10.5996H99.6949C102.137 10.5996 103.749 9.46016 103.749 6.68623C103.749 4.20352 102.283 2.76923 99.9618 2.76923C99.5668 2.77214 99.1725 2.8001 98.7811 2.85295C98.6377 2.87162 98.5061 2.9419 98.4111 3.05054C98.3162 3.15918 98.2645 3.29867 98.2657 3.44269V10.2356C98.2657 10.3321 98.3042 10.4247 98.3727 10.493C98.4413 10.5612 98.5343 10.5996 98.6312 10.5996ZM120.293 1.28397V1.648C120.293 1.648 121.068 1.90283 120.407 3.10414L116.711 9.73683C116.69 9.77308 116.659 9.80316 116.623 9.82407C116.586 9.84497 116.545 9.85597 116.503 9.85597C116.461 9.85597 116.419 9.84497 116.383 9.82407C116.346 9.80316 116.316 9.77308 116.294 9.73683L112.588 3.08594C111.926 1.89919 112.701 1.6298 112.701 1.6298V1.26577H107.872V1.6298C108.553 1.92243 109.115 2.43555 109.466 3.08594L114.441 12.012C114.529 12.1716 114.575 12.3506 114.576 12.5326V18.885C114.596 19.1802 114.533 19.475 114.394 19.7366C114.255 19.9982 114.046 20.2163 113.79 20.3666V20.7306H118.071V20.3666C117.815 20.2163 117.606 19.9982 117.467 19.7366C117.329 19.475 117.265 19.1802 117.285 18.885V12.5617C117.286 12.3797 117.332 12.2007 117.42 12.0412L122.406 3.11506C122.757 2.46467 123.319 1.95155 124 1.65892V1.29489L120.293 1.28397ZM67.8524 19.2563H73.7449C74.0414 19.2758 74.3374 19.2129 74.6001 19.0747C74.8628 18.9365 75.0818 18.7284 75.2327 18.4736H75.5983V20.7416H63.8716V20.3775C64.1265 20.2264 64.3345 20.0081 64.4725 19.7466C64.6106 19.4851 64.6733 19.1907 64.6539 18.8959V3.1369C64.6735 2.8426 64.6108 2.54863 64.4727 2.28771C64.3346 2.02678 64.1265 1.80912 63.8716 1.65892V1.29489H74.7867V3.54826H74.4212C74.2682 3.29517 74.048 3.08914 73.7848 2.95294C73.5216 2.81674 73.2257 2.75568 72.9298 2.77651H67.8487C67.7217 2.77651 67.5999 2.82675 67.5101 2.91618C67.4203 3.00562 67.3699 3.12691 67.3699 3.25339V9.48564C67.3699 9.58219 67.4084 9.67478 67.4769 9.74305C67.5455 9.81132 67.6384 9.84968 67.7354 9.84968H70.9485C72.0452 9.84968 72.4107 9.22354 72.4107 9.22354H72.7762V11.9574H72.4107C72.4107 11.9574 72.0452 11.3277 70.9485 11.3277H67.739C67.6421 11.3277 67.5491 11.366 67.4806 11.4343C67.412 11.5025 67.3735 11.5951 67.3735 11.6917V18.7794C67.3735 18.9059 67.424 19.0272 67.5138 19.1166C67.6036 19.2061 67.7254 19.2563 67.8524 19.2563Z" fill="currentColor"></path></svg>

